<?xml version="1.0" standalone="no"?><!DOCTYPE svg PUBLIC "-//W3C//DTD SVG 1.1//EN" "http://www.w3.org/Graphics/SVG/1.1/DTD/svg11.dtd"><svg t="1643782720712" class="icon" viewBox="0 0 1024 1024" version="1.1" xmlns="http://www.w3.org/2000/svg" p-id="3137" xmlns:xlink="http://www.w3.org/1999/xlink" width="200" height="200"><defs><style type="text/css"></style></defs><path d="M727.33 784.82v-5.11h-0.52c-2.47-15.54-15.82-27.46-32.06-27.46H369.01c-16.23 0-29.59 11.91-32.06 27.46h-0.51V795.44c0 17.99 14.58 32.57 32.57 32.57h325.74c17.99 0 32.58-14.58 32.58-32.57v-10.62z" fill="#44BDDC" opacity=".8" p-id="3138"></path><path d="M88.02 190.79m-26.51 0a26.51 26.51 0 1 0 53.02 0 26.51 26.51 0 1 0-53.02 0Z" fill="#4D73B6" opacity=".8" p-id="3139"></path><path d="M134.41 90.95m-26.51 0a26.51 26.51 0 1 0 53.02 0 26.51 26.51 0 1 0-53.02 0Z" fill="#44BDDC" opacity=".8" p-id="3140"></path><path d="M962.49 137.34c0 14.64-11.86 26.51-26.5 26.51-14.65 0-26.52-11.87-26.52-26.51 0-14.64 11.87-26.51 26.52-26.51 14.64 0 26.5 11.87 26.5 26.51z" fill="#4D73B6" opacity=".8" p-id="3141"></path><path d="M776.58 959.56h-489.4c-35.99 0-65.26-29.26-65.26-65.25V812.6c0-56.58 20.87-110.88 58.76-152.91l111.95-124.21-112.01-124.37c-37.85-42.02-58.69-96.3-58.69-152.85v-81.75c0-35.98 29.27-65.25 65.26-65.25h489.4c35.98 0 65.26 29.27 65.26 65.25v81.75c0 56.54-20.84 110.82-58.67 152.85L671.13 535.47 783.1 659.69c37.88 42.02 58.73 96.33 58.73 152.9v81.71c0 35.99-29.26 65.26-65.25 65.26z m-489.4-783.04v81.75c0 40.39 14.89 79.17 41.93 109.18l131.69 146.2c11.18 12.41 11.16 31.26-0.02 43.67L329.15 703.37c-27.07 30.02-41.96 68.81-41.96 109.22v81.71h489.4v-81.71c0-40.41-14.9-79.2-41.94-109.22L602.98 557.32c-11.18-12.41-11.2-31.27-0.02-43.67l131.7-146.2c27.04-30.02 41.92-68.8 41.92-109.18v-81.75h-489.4z m0 0" fill="#3D6AB2" opacity=".8" p-id="3142"></path><path d="M300.05 149.64c0 17.76-14.79 32.17-33.05 32.17-18.26 0-33.05-14.41-33.05-32.17 0-17.78 14.79-32.18 33.05-32.18 18.26 0 33.05 14.41 33.05 32.18zM830.23 149.64c0 17.76-14.79 32.17-33.05 32.17-18.26 0-33.05-14.41-33.05-32.17 0-17.78 14.79-32.18 33.05-32.18 18.27 0 33.05 14.41 33.05 32.18zM303.98 923.21c0 17.76-14.79 32.17-33.05 32.17-18.26 0-33.05-14.41-33.05-32.17 0-17.78 14.79-32.18 33.05-32.18 18.26 0 33.05 14.41 33.05 32.18zM830.02 919.07c0 17.76-14.79 32.17-33.05 32.17-18.26 0-33.05-14.41-33.05-32.17 0-17.78 14.79-32.18 33.05-32.18 18.26 0 33.05 14.4 33.05 32.18zM670.63 535.42c0 20.44-17.01 37.01-38.02 37.01-21 0-38.02-16.57-38.02-37.01 0-20.45 17.01-37.02 38.02-37.02 21 0 38.02 16.57 38.02 37.02zM468.49 535.41c0 20.44-17.01 37.01-38.02 37.01-21 0-38.02-16.57-38.02-37.01 0-20.45 17.01-37.02 38.02-37.02s38.02 16.57 38.02 37.02z" fill="#3D6AB2" opacity=".8" p-id="3143"></path></svg>